<?xml version="1.0" encoding="iso-8859-1"?>
<!-- Uploaded to: SVG Repo, www.svgrepo.com, Generator: SVG Repo Mixer Tools -->
<!DOCTYPE svg PUBLIC "-//W3C//DTD SVG 1.1//EN" "http://www.w3.org/Graphics/SVG/1.1/DTD/svg11.dtd">
<svg fill="#000000" version="1.1" id="Capa_1" xmlns="http://www.w3.org/2000/svg" xmlns:xlink="http://www.w3.org/1999/xlink" 
	 width="800px" height="800px" viewBox="0 0 400.001 400.001"
	 xml:space="preserve">
<g>
	<g>
		<path d="M384.143,92.538c21.143-21.141,21.143-55.541,0-76.682s-55.541-21.141-76.682,0c-16.059,16.059-19.906,39.76-11.57,59.496
			l-12.105,12.107l-34.06-34.058c-7.562-7.564-19.821-7.564-27.386,0c-7.562,7.561-7.562,19.822,0,27.385l34.061,34.059
			L76.155,295.089c-41.904-52.672-47.5-121.348-12.564-164.645l14.725,14.727c2.346,2.344,6.072,2.896,9.607,1.428
			c3.533-1.471,6.264-4.709,7.031-8.35l15.805-74.814c0.625-2.951-0.123-5.791-2.023-7.691c-1.9-1.902-4.74-2.648-7.691-2.025
			L26.229,69.524c-3.639,0.77-6.877,3.498-8.348,7.033c-1.469,3.535-0.918,7.262,1.426,9.605l15.41,15.41
			C8.916,131.511-3.129,171.125,0.696,214.309c4.039,45.608,25.441,89.907,60.266,124.731
			c34.825,34.824,79.121,56.227,124.732,60.266c43.184,3.824,82.797-8.223,112.735-34.021l15.408,15.41
			c2.346,2.344,6.072,2.896,9.607,1.426c3.531-1.472,6.264-4.709,7.029-8.349l15.807-74.813c0.623-2.951-0.123-5.791-2.023-7.69
			c-1.898-1.901-4.74-2.647-7.691-2.024l-74.814,15.807c-3.639,0.77-6.877,3.496-8.348,7.029c-1.471,3.537-0.918,7.262,1.426,9.606
			l14.729,14.728c-43.296,34.936-111.972,29.34-164.644-12.563l180.24-180.247l34.059,34.059c7.564,7.563,19.826,7.563,27.387,0
			c7.564-7.563,7.563-19.822,0-27.385l-34.059-34.059l12.107-12.109C344.381,112.444,368.084,108.595,384.143,92.538z M328,36.396
			c9.816-9.816,25.785-9.816,35.602,0c9.817,9.816,9.818,25.785,0,35.604c-9.812,9.813-25.783,9.814-35.602,0
			C318.186,62.183,318.186,46.212,328,36.396z"/>
	</g>
</g>
</svg>