<!DOCTYPE svg PUBLIC "-//W3C//DTD SVG 1.1//EN" "http://www.w3.org/Graphics/SVG/1.1/DTD/svg11.dtd">
<!-- Uploaded to: SVG Repo, www.svgrepo.com, Transformed by: SVG Repo Mixer Tools -->
<svg width="800px" height="800px" viewBox="0 0 48.00 48.00" fill="none" xmlns="http://www.w3.org/2000/svg" stroke="#000000" stroke-width="0.00048000000000000007">
<g id="SVGRepo_bgCarrier" stroke-width="0"/>
<g id="SVGRepo_tracerCarrier" stroke-linecap="round" stroke-linejoin="round" stroke="#CCCCCC" stroke-width="0.288"/>
<g id="SVGRepo_iconCarrier"> <g id="sign"> <g id="sign_2"> <path id="Combined Shape" fill-rule="evenodd" clip-rule="evenodd" d="M24 7.98839H32.1016C32.9597 7.98839 33.7758 8.35484 34.3451 8.99604L41.5138 17.0611C41.9809 17.591 41.9809 18.3858 41.5111 18.9187L34.3454 26.9803C33.7758 27.6219 32.9597 27.9884 32.1016 27.9884H20V40.9774C20 41.53 20.4472 41.9774 21 41.9774C21.5529 41.9774 22 41.53 22 40.9774V31.0274C22 30.4751 22.4477 30.0274 23 30.0274C23.5523 30.0274 24 30.4751 24 31.0274V40.9774C24 42.6342 22.6578 43.9774 21 43.9774C19.3423 43.9774 18 42.6342 18 40.9774V27.9884H8.99963C7.34135 27.9884 5.99963 26.6467 5.99963 24.9884V10.9884C5.99963 9.3301 7.34135 7.98839 8.99963 7.98839H18V6.99939C18 5.34257 19.3423 3.99939 21 3.99939C22.6578 3.99939 24 5.34257 24 6.99939V7.98839ZM20 7.98839V6.99939C20 6.44683 20.4472 5.99939 21 5.99939C21.5529 5.99939 22 6.44683 22 6.99939V7.98839H20ZM8.99963 25.9884H18V24.9994C18 24.4471 18.4477 23.9994 19 23.9994C19.5523 23.9994 20 24.4471 20 24.9994V25.9884H32.1016C32.3882 25.9884 32.6599 25.8664 32.8502 25.652L39.6621 17.9884L32.8498 10.3243C32.6599 10.1104 32.3882 9.98839 32.1016 9.98839H8.99963C8.44592 9.98839 7.99963 10.4347 7.99963 10.9884V24.9884C7.99963 25.5421 8.44592 25.9884 8.99963 25.9884Z" fill="#000000"/> </g> </g> </g>
</svg>